# xmcd CD database file
#
# Track frame offsets:
#	150
#	13919
#	32292
#	44378
#	62228
#	99829
#	122543
#	135549
#	157556
#	171304
#	202678
#	212682
#	233535
#	246852
#	258666
#	275399
#	289583
#	307835
#
# Disc length: 4360 seconds
#
# Revision: 2
# Processed by: cddbd v1.4b41PL1 Copyright (c) Steve Scherf et al.
# Submitted via: Feurio! 1.60 - http://www.feurio.com
#
DISCID=e4110612,f6110612
DTITLE=Various Artist - Harry  III
DYEAR=1900
DGENRE=
TTITLE0=Q.Lazzarus - Godbie Horses
TTITLE1=Bryan Ferry - Will you love me tomrrow
TTITLE2=Nancy Sinatrs - These Boots are made for walking
TTITLE3=Jon Lee Hooker - Chill out
TTITLE4=St Germain - So flute
TTITLE5=Nina Simone - My Way
TTITLE6=The Foundations - Build me up Buttercup
TTITLE7=Ike and Tina Turner - Proud Mary
TTITLE8=The Pretenders - I got you Babe
TTITLE9=St germain - Rose Rouge
TTITLE10=The Kinks - You really got me 
TTITLE11=The Faces - Stay with me
TTITLE12=The Spencer Davis Group - Gimme some lovin
TTITLE13=Buffalo Springfield - For what it's worth
TTITLE14=Tony Joe White - Polk Sacad Annie
TTITLE15=Canned Heat - On the road again
TTITLE16=David Bowie - Let's dance
TTITLE17=David Bowie - Chaina Girld
EXTD=
EXTT0=
EXTT1=
EXTT2=
EXTT3=
EXTT4=
EXTT5=
EXTT6=
EXTT7=
EXTT8=
EXTT9=
EXTT10=
EXTT11=
EXTT12=
EXTT13=
EXTT14=
EXTT15=
EXTT16=
EXTT17=
PLAYORDER=
